<?xml version="1.0" encoding="iso-8859-1"?>
<!-- Generator: Adobe Illustrator 19.0.0, SVG Export Plug-In . SVG Version: 6.00 Build 0)  -->
<svg version="1.1" id="Capa_1" xmlns="http://www.w3.org/2000/svg" xmlns:xlink="http://www.w3.org/1999/xlink" x="0px" y="0px"
	 viewBox="0 0 512 512" style="enable-background:new 0 0 512 512;" xml:space="preserve">
<path style="fill:#FBC640;" d="M425.512,101.266c-19.563,0-35.479-15.911-35.479-35.469s15.916-35.469,35.479-35.469
	c19.557,0,35.469,15.911,35.469,35.469S445.07,101.266,425.512,101.266z"/>
<polygon style="fill:#D9F5FF;" points="78.373,271.923 103.133,215.091 104.085,215.091 162.345,192.65 184.796,207.179 
	216.513,183.739 277.895,195.608 320.582,194.178 336.921,224.914 387.735,195.7 442.487,271.923 "/>
<polygon style="fill:#BFEEFF;" points="358.049,424.645 358.049,267.907 440.954,267.907 409.246,452.668 "/>
<polygon style="fill:#EFEFEF;" points="318.213,198.276 277.802,199.629 276.912,195.791 360.73,158.104 390.089,198.979 
	335.325,230.465 "/>
<polygon style="fill:#BFEEFF;" points="216.496,407.662 216.496,267.907 362.064,267.907 362.064,424.318 279.963,502.141 "/>
<polygon style="fill:#EFEFEF;" points="123.112,169.252 198.304,136.601 278.926,196.006 277.353,199.594 217.482,188.015 
	184.948,212.059 161.881,197.133 100.7,220.698 "/>
<polygon style="fill:#BFEEFF;" points="114.179,417.861 78.903,267.907 220.511,267.907 220.511,407.979 171.049,450.109 "/>
<path d="M412.11,458.597c2.92-1.411,4.979-4.146,5.528-7.342l29.399-171.3h54.925c5.545,0,10.039-4.496,10.039-10.039
	c0-5.544-4.495-10.039-10.039-10.039h-58.238L368.21,154.752c-2.785-3.877-7.917-5.257-12.271-3.299l-76.972,34.608l-74.969-55.239
	c-2.88-2.121-6.673-2.551-9.954-1.126l-73.407,31.875c-2.33,1.012-4.19,2.869-5.205,5.199l-20.009,45.931
	c-0.062,0.128-0.122,0.258-0.18,0.39l-20.383,46.787H10.039C4.495,259.878,0,264.374,0,269.917c0,5.544,4.495,10.039,10.039,10.039
	h63.447l32.674,138.893c0.641,2.723,2.387,5.054,4.821,6.434l24.108,13.67c0.017,0.009,0.033,0.019,0.05,0.028l30.726,17.422
	c3.67,2.079,8.25,1.646,11.462-1.091l39.119-33.32l32.281,48.054c0.036,0.054,0.072,0.109,0.109,0.163l23.135,34.44
	c1.647,2.453,4.292,4.055,7.228,4.38c0.369,0.04,0.739,0.061,1.106,0.061c2.555,0,5.032-0.977,6.906-2.753l74.442-70.563
	l41.269,22.589C405.766,459.921,409.189,460.006,412.11,458.597z M356.689,173.13l15.839,22.049l-32.412,18.635l-11.854-22.3
	c-0.88-1.656-2.193-2.995-3.747-3.918L356.689,173.13z M196.742,150.414l39.231,28.907l-17.07-3.301
	c-2.758-0.534-5.614,0.113-7.873,1.783l-26.538,19.613l-16.926-10.953c-2.697-1.745-6.066-2.092-9.062-0.941l-35.257,13.58
	l9.014-20.691L196.742,150.414z M111.972,224.963l48.978-18.865l18.467,11.95c3.51,2.272,8.058,2.129,11.421-0.355l28.581-21.123
	l56.409,10.909c0.172,0.033,0.346,0.046,0.52,0.07c0.151,0.021,0.3,0.047,0.452,0.061c0.296,0.027,0.593,0.035,0.89,0.036
	c0.113,0,0.226,0.011,0.339,0.008c0.013,0,0.027,0.001,0.04,0.001l35.402-1.186l13.785,25.932c1.277,2.402,3.474,4.182,6.088,4.935
	c0.912,0.262,1.845,0.392,2.776,0.392c1.74,0,3.468-0.453,5.005-1.336l43.175-24.823l34.699,48.306H96.763L111.972,224.963z
	 M169.657,435.47l-19.708-11.176v-43.218c0-5.544-4.495-10.039-10.039-10.039c-5.545,0-10.039,4.496-10.039,10.039v31.832
	l-5.169-2.931L94.114,279.954h114.351v122.46L169.657,435.47z M282.017,483.595l-14.872-22.139v-54.401
	c0-5.544-4.495-10.039-10.039-10.039c-5.545,0-10.039,4.496-10.039,10.039v24.512l-18.523-27.574V279.954h121.475v139.184
	l-18.313,17.358v-67.59c0-5.544-4.495-10.039-10.039-10.039s-10.039,4.496-10.039,10.039v86.622L282.017,483.595z M370.096,417.506
	V279.954h56.569l-26.437,154.043L370.096,417.506z"/>
<path d="M469.012,65.798c0-23.987-19.514-43.5-43.5-43.5c-23.992,0-43.51,19.514-43.51,43.5s19.518,43.5,43.51,43.5
	C449.498,109.298,469.012,89.784,469.012,65.798z M402.081,65.798c0-12.914,10.511-23.421,23.432-23.421
	c12.914,0,23.421,10.507,23.421,23.421s-10.507,23.421-23.421,23.421C412.592,89.219,402.081,78.712,402.081,65.798z"/>
<path d="M73.435,423.452c12.919,0,12.941-20.078,0-20.078C60.514,403.374,60.493,423.452,73.435,423.452z"/>
<path d="M104.556,472.644c12.919,0,12.941-20.078,0-20.078C91.636,452.566,91.615,472.644,104.556,472.644z"/>
<path d="M144.713,484.691c12.919,0,12.941-20.078,0-20.078C131.793,464.613,131.772,484.691,144.713,484.691z"/>
<path d="M368.588,485.695c12.919,0,12.941-20.078,0-20.078C355.667,465.617,355.646,485.695,368.588,485.695z"/>
<path d="M327.427,511.797c12.919,0,12.941-20.078,0-20.078C314.507,491.719,314.485,511.797,327.427,511.797z"/>
<path d="M201.724,14.609c2.41-4.994,0.317-10.995-4.676-13.406c-4.995-2.408-10.996-0.316-13.405,4.676
	c-0.949,1.966-2.6,3.79-4.512,5.903c-4.563,5.042-10.813,11.948-10.813,24.898c0,12.948,6.249,19.854,10.812,24.897
	c3.625,4.006,5.622,6.212,5.622,11.425c0,5.21-1.997,7.418-5.622,11.423c-2.698,2.981-6.054,6.689-8.292,11.936
	c-2.176,5.1,0.194,10.998,5.294,13.173c1.285,0.549,2.621,0.809,3.935,0.809c3.9,0,7.611-2.288,9.238-6.102
	c0.918-2.149,2.592-4,4.711-6.342c4.563-5.043,10.813-11.948,10.813-24.896s-6.249-19.854-10.812-24.897
	c-3.625-4.006-5.622-6.212-5.622-11.425c0-5.213,1.997-7.421,5.622-11.427C196.597,22.404,199.519,19.175,201.724,14.609z"/>
<path d="M268.062,14.609c2.41-4.994,0.317-10.995-4.676-13.406c-4.995-2.408-10.995-0.316-13.405,4.676
	c-0.949,1.966-2.6,3.79-4.512,5.903c-4.563,5.042-10.813,11.948-10.813,24.898c0,12.948,6.249,19.854,10.812,24.897
	c3.625,4.006,5.622,6.212,5.622,11.425c0,5.211-1.997,7.418-5.622,11.424c-2.698,2.98-6.054,6.688-8.291,11.935
	c-2.176,5.099,0.193,10.997,5.293,13.173c1.285,0.549,2.621,0.809,3.935,0.809c3.9,0,7.611-2.287,9.238-6.102
	c0.918-2.149,2.592-4,4.712-6.342c4.563-5.042,10.813-11.948,10.813-24.896s-6.249-19.854-10.812-24.897
	c-3.625-4.006-5.622-6.212-5.622-11.425c0-5.213,1.997-7.421,5.622-11.427C262.935,22.404,265.858,19.175,268.062,14.609z"/>
<path d="M334.4,14.609c2.41-4.994,0.317-10.995-4.676-13.406c-4.996-2.408-10.995-0.316-13.405,4.676
	c-0.949,1.966-2.6,3.79-4.512,5.903c-4.563,5.042-10.813,11.948-10.813,24.898c0,12.948,6.249,19.854,10.812,24.897
	c3.625,4.006,5.622,6.212,5.622,11.425c0,5.211-1.997,7.418-5.622,11.424c-2.698,2.98-6.054,6.688-8.291,11.935
	c-2.176,5.099,0.193,10.997,5.293,13.173c1.285,0.549,2.621,0.809,3.935,0.809c3.9,0,7.611-2.287,9.238-6.102
	c0.918-2.149,2.592-4,4.712-6.342c4.563-5.042,10.813-11.948,10.813-24.896s-6.249-19.854-10.812-24.897
	c-3.625-4.006-5.622-6.212-5.622-11.425c0-5.213,1.997-7.421,5.622-11.427C329.273,22.404,332.196,19.175,334.4,14.609z"/>
<path d="M139.909,338.913c-12.919,0-12.941,20.078,0,20.078C152.828,358.991,152.85,338.913,139.909,338.913z"/>
<g>
</g>
<g>
</g>
<g>
</g>
<g>
</g>
<g>
</g>
<g>
</g>
<g>
</g>
<g>
</g>
<g>
</g>
<g>
</g>
<g>
</g>
<g>
</g>
<g>
</g>
<g>
</g>
<g>
</g>
</svg>
