<?xml version="1.0" encoding="iso-8859-1"?>
<!-- Generator: Adobe Illustrator 19.0.0, SVG Export Plug-In . SVG Version: 6.00 Build 0)  -->
<svg version="1.1" id="Capa_1" xmlns="http://www.w3.org/2000/svg" xmlns:xlink="http://www.w3.org/1999/xlink" x="0px" y="0px"
	 viewBox="0 0 511.999 511.999" style="enable-background:new 0 0 511.999 511.999;" xml:space="preserve">
<path style="fill:#FF4F4F;" d="M269.035,400.505c-35.519,0-68.911-13.831-94.025-38.946c-25.115-25.114-38.946-58.507-38.946-94.025
	s13.831-68.911,38.946-94.025c32.885-32.875,181.929-108.5,269.173-140.951l1.183-0.44l59.087,59.087l-0.44,1.183
	C471.55,179.657,395.924,328.706,363.06,361.56C337.946,386.674,304.554,400.505,269.035,400.505z M269.035,178.72
	c-23.723,0-46.024,9.24-62.796,26.016c-16.773,16.773-26.01,39.074-26.01,62.797s9.237,46.024,26.01,62.797
	c16.772,16.777,39.074,26.016,62.797,26.016c23.722,0,46.024-9.24,62.796-26.016c16.778-16.772,26.017-39.074,26.017-62.797
	c0-23.722-9.24-46.024-26.016-62.796C315.058,187.959,292.757,178.72,269.035,178.72z"/>
<path style="fill:#BF9984;" d="M269.035,360.277c-24.772,0-48.062-9.648-65.576-27.168c-17.515-17.515-27.16-40.803-27.16-65.576
	s9.645-48.061,27.161-65.576c17.514-17.52,40.803-27.168,65.576-27.168s48.061,9.648,65.576,27.168
	c17.519,17.515,27.168,40.803,27.168,65.576s-9.648,48.062-27.168,65.576C317.096,350.629,293.807,360.277,269.035,360.277z
	 M250.614,293.035c-3.952,0-7.667,1.539-10.462,4.333c-5.768,5.768-5.767,15.158,0.001,20.935c2.794,2.793,6.51,4.332,10.461,4.332
	s7.667-1.539,10.462-4.333c2.799-2.799,4.341-6.517,4.341-10.471c0-3.952-1.541-7.668-4.34-10.462
	C258.281,294.574,254.565,293.035,250.614,293.035z M273.776,208.654c-6.57,0-12.746,2.559-17.389,7.206
	c-4.648,4.644-7.208,10.82-7.208,17.39s2.559,12.746,7.206,17.389c4.644,4.648,10.82,7.208,17.39,7.208
	c6.571,0,12.747-2.559,17.389-7.207c4.648-4.644,7.208-10.82,7.208-17.39s-2.559-12.746-7.206-17.389
	C286.523,211.213,280.347,208.654,273.776,208.654z"/>
<g>
	<path style="fill:#755E51;" d="M273.776,261.779c-7.621,0-14.784-2.969-20.17-8.359c-5.389-5.384-8.358-12.547-8.358-20.168
		c0-7.621,2.969-14.784,8.359-20.17c5.384-5.389,12.547-8.358,20.168-8.358c7.621,0,14.785,2.969,20.17,8.359
		c5.389,5.384,8.358,12.547,8.358,20.168s-2.969,14.784-8.359,20.17C288.561,258.81,281.397,261.779,273.776,261.779z"/>
	<path style="fill:#755E51;" d="M250.614,326.565c-5.002,0-9.704-1.948-13.241-5.485c-7.3-7.309-7.299-19.193,0-26.492
		c3.537-3.537,8.239-5.485,13.241-5.485s9.704,1.948,13.241,5.485c3.542,3.536,5.491,8.239,5.491,13.242s-1.95,9.708-5.491,13.25
		C260.318,324.617,255.616,326.565,250.614,326.565z"/>
</g>
<polygon style="fill:#EFEFEF;" points="70.894,479.569 70.894,422.434 72.192,422.428 103.115,398.45 136.337,424.511 
	135.292,425.507 135.292,479.569 "/>
<path d="M269.035,166.927c-26.873,0-52.136,10.467-71.135,29.471c-18.999,19-29.463,44.264-29.463,71.135
	c0,26.872,10.464,52.135,29.462,71.134c19,19.005,44.264,29.472,71.136,29.472c26.872,0,52.136-10.467,71.134-29.47
	c19.005-19,29.472-44.264,29.472-71.136c0-26.871-10.467-52.134-29.47-71.134C321.171,177.394,295.907,166.927,269.035,166.927z
	 M326.271,324.771c-15.288,15.292-35.615,23.713-57.236,23.713s-41.949-8.422-57.237-23.714
	c-15.287-15.287-23.707-35.615-23.707-57.237c0-21.622,8.419-41.95,23.708-57.238c15.287-15.291,35.614-23.713,57.236-23.713
	c21.622,0,41.949,8.422,57.236,23.713c0,0,0.001,0.001,0.001,0.002c15.292,15.287,23.713,35.615,23.713,57.236
	C349.986,289.155,341.565,309.481,326.271,324.771z"/>
<path d="M273.776,196.861c-9.723,0-18.861,3.787-25.726,10.658c-6.877,6.871-10.664,16.009-10.664,25.732
	s3.787,18.861,10.658,25.726c6.871,6.877,16.009,10.664,25.732,10.664s18.861-3.787,25.732-10.664
	c6.873-6.87,10.659-16.006,10.659-25.726c0-9.723-3.787-18.861-10.659-25.726C292.638,200.648,283.498,196.861,273.776,196.861z
	 M285.61,245.079c-0.002,0.002-0.004,0.004-0.006,0.006c-3.157,3.16-7.359,4.902-11.828,4.902c-4.469,0-8.67-1.74-11.834-4.909
	c-3.161-3.157-4.902-7.358-4.902-11.827s1.74-8.67,4.909-11.834c3.157-3.161,7.358-4.902,11.827-4.902
	c4.469,0,8.671,1.74,11.834,4.908c3.16,3.157,4.902,7.359,4.902,11.828S288.772,241.92,285.61,245.079z"/>
<path d="M231.813,289.029c-10.362,10.361-10.365,27.231,0,37.611c5.184,5.183,11.992,7.775,18.8,7.775
	c6.808,0,13.617-2.591,18.8-7.775c5.026-5.027,7.794-11.706,7.794-18.809c0-7.106-2.77-13.785-7.794-18.801
	C259.047,278.662,242.18,278.662,231.813,289.029z M255.516,312.742c-2.703,2.703-7.103,2.702-9.801,0.005
	c-2.706-2.711-2.709-7.116-0.005-9.82c1.351-1.351,3.125-2.027,4.901-2.027c1.777,0,3.555,0.677,4.911,2.032
	c1.31,1.309,2.032,3.048,2.032,4.898C257.554,309.684,256.83,311.428,255.516,312.742z"/>
<path d="M505.596,82.49c-5.087-1.894-10.745,0.698-12.637,5.784C461.571,172.66,386.065,321.886,354.721,353.22
	c-22.888,22.888-53.317,35.492-85.686,35.492s-62.8-12.604-85.687-35.492s-35.492-53.318-35.492-85.687s12.604-62.8,35.491-85.685
	c31.364-31.356,180.588-106.861,264.947-138.239c5.087-1.892,7.677-7.55,5.784-12.637c-1.892-5.087-7.548-7.677-12.637-5.784
	c-87.93,32.707-238.492,109.272-271.991,142.76c-26.599,26.599-41.249,61.966-41.249,99.585s14.649,72.985,41.249,99.585
	c26.599,26.599,61.966,41.249,99.585,41.249s72.985-14.649,99.583-41.248c33.476-33.466,110.045-184.035,142.762-271.993
	C513.273,90.039,510.683,84.382,505.596,82.49z"/>
<path d="M495.222,27.451L377.066,145.606c-3.838,3.838-3.838,10.06,0,13.899c1.919,1.919,4.434,2.878,6.949,2.878
	c2.515,0,5.031-0.96,6.949-2.878L509.12,41.349c3.838-3.838,3.838-10.06,0-13.899C505.282,23.614,499.061,23.614,495.222,27.451z"/>
<path d="M393.969,90.861c-3.325-4.292-9.498-5.074-13.788-1.75l-64.767,50.179c-4.291,3.325-5.074,9.497-1.75,13.788
	c1.937,2.5,4.841,3.809,7.775,3.809c2.103,0,4.221-0.672,6.012-2.059l64.767-50.179C396.509,101.324,397.292,95.152,393.969,90.861z
	"/>
<path d="M388.047,223.506c2.934,0,5.838-1.31,7.775-3.809l50.179-64.767c3.324-4.291,2.54-10.463-1.75-13.788
	c-4.29-3.323-10.463-2.539-13.788,1.75l-50.179,64.767c-3.324,4.291-2.54,10.463,1.75,13.788
	C383.826,222.834,385.944,223.506,388.047,223.506z"/>
<path d="M360.701,166.043c-12.647,0-12.667,19.654,0,19.654C373.347,185.697,373.368,166.043,360.701,166.043z"/>
<path d="M72.821,487.429c0.013,0,0.026,0.002,0.038,0.002h60.467c0.013,0,0.026-0.002,0.038-0.002h357.998
	c5.428,0,9.827-4.4,9.827-9.827c0-5.428-4.4-9.827-9.827-9.827H143.154v-23.792c0.927,0.28,1.881,0.426,2.833,0.426
	c2.915,0,5.801-1.291,7.74-3.764c3.349-4.271,2.601-10.448-1.669-13.797l-42.885-33.637c-3.545-2.78-8.527-2.796-12.087-0.033
	L67.058,416.46c-0.156,0.115-0.309,0.234-0.458,0.358l-12.704,9.849c-4.29,3.326-5.071,9.499-1.745,13.788
	c2.628,3.39,7.032,4.577,10.882,3.29v24.03H9.827c-5.428,0-9.827,4.4-9.827,9.827c0,5.428,4.4,9.827,9.827,9.827H72.821z
	 M82.687,429.212l20.385-15.807l20.427,16.022v38.349h-10.582v-16.78c0-5.428-4.4-9.827-9.827-9.827c-5.428,0-9.827,4.4-9.827,9.827
	v16.78H82.687V429.212z"/>
<g>
</g>
<g>
</g>
<g>
</g>
<g>
</g>
<g>
</g>
<g>
</g>
<g>
</g>
<g>
</g>
<g>
</g>
<g>
</g>
<g>
</g>
<g>
</g>
<g>
</g>
<g>
</g>
<g>
</g>
</svg>
