<?xml version="1.0" encoding="iso-8859-1"?>
<!-- Generator: Adobe Illustrator 19.0.0, SVG Export Plug-In . SVG Version: 6.00 Build 0)  -->
<svg version="1.1" id="Capa_1" xmlns="http://www.w3.org/2000/svg" xmlns:xlink="http://www.w3.org/1999/xlink" x="0px" y="0px"
	 viewBox="0 0 511.999 511.999" style="enable-background:new 0 0 511.999 511.999;" xml:space="preserve">
<path style="fill:#917464;" d="M34.955,293.664c-3.642,0-7.213-0.741-10.614-2.205c-6.58-2.836-11.661-8.067-14.308-14.729
	c-2.647-6.661-2.541-13.954,0.299-20.531l89.088-206.59c4.246-9.841,13.912-16.201,24.624-16.201c1.441,0,2.895,0.118,4.323,0.351
	l221.434,35.981c14.6,2.367,24.552,16.179,22.185,30.79c-2.128,13.056-13.263,22.532-26.479,22.532
	c-1.434,0-2.884-0.117-4.309-0.347L140.419,90.081l-80.812,187.37C55.355,287.301,45.678,293.664,34.955,293.664z"/>
<polygon style="fill:#EFEFEF;" points="276.298,478.59 276.298,337.397 181.049,337.397 181.049,478.59 83.629,478.59 
	83.629,294.364 228.686,181.89 373.718,295.661 373.718,478.59 "/>
<rect x="176.992" y="333.333" style="fill:#917464;" width="103.366" height="145.252"/>
<path d="M381.835,476.561V296.647c0-0.039-0.005-0.076-0.006-0.115c-0.002-0.189-0.016-0.376-0.028-0.564
	c-0.01-0.153-0.016-0.306-0.033-0.457c-0.017-0.154-0.046-0.306-0.07-0.46c-0.028-0.18-0.053-0.359-0.09-0.535
	c-0.026-0.121-0.062-0.238-0.092-0.358c-0.051-0.2-0.098-0.401-0.161-0.597c-0.037-0.116-0.084-0.227-0.125-0.342
	c-0.069-0.191-0.135-0.385-0.214-0.57c-0.064-0.149-0.141-0.293-0.212-0.44c-0.07-0.144-0.135-0.29-0.211-0.43
	c-0.097-0.178-0.208-0.349-0.317-0.522c-0.065-0.103-0.124-0.21-0.192-0.309c-0.115-0.168-0.243-0.33-0.368-0.493
	c-0.076-0.098-0.147-0.2-0.226-0.295c-0.116-0.139-0.243-0.27-0.366-0.403c-0.106-0.114-0.207-0.229-0.317-0.337
	s-0.227-0.207-0.342-0.31c-0.139-0.125-0.278-0.251-0.423-0.368c-0.03-0.024-0.057-0.052-0.088-0.076l-143.01-112.184
	c-3.66-2.872-8.804-2.886-12.48-0.034L79.443,287.342c-0.037,0.028-0.067,0.06-0.104,0.088c-0.15,0.12-0.292,0.247-0.435,0.373
	c-0.114,0.101-0.228,0.2-0.336,0.305c-0.116,0.113-0.223,0.232-0.334,0.351c-0.12,0.129-0.241,0.256-0.354,0.39
	c-0.088,0.106-0.169,0.217-0.253,0.327c-0.118,0.152-0.237,0.303-0.345,0.461c-0.077,0.114-0.146,0.232-0.219,0.349
	c-0.099,0.159-0.202,0.317-0.291,0.48c-0.077,0.14-0.144,0.286-0.215,0.431c-0.071,0.146-0.147,0.29-0.212,0.439
	c-0.073,0.169-0.134,0.345-0.199,0.52c-0.048,0.131-0.101,0.26-0.143,0.392c-0.058,0.18-0.103,0.365-0.151,0.55
	c-0.036,0.135-0.075,0.269-0.105,0.406c-0.037,0.169-0.062,0.343-0.09,0.516c-0.026,0.159-0.055,0.319-0.073,0.479
	c-0.017,0.15-0.025,0.303-0.036,0.456c-0.013,0.19-0.026,0.378-0.028,0.568c-0.001,0.047-0.007,0.091-0.007,0.138v181.202
	c0,5.603,4.543,10.147,10.147,10.147h39.432c0.007,0,0.013,0.001,0.019,0.001c0.006,0,0.013-0.001,0.019-0.001h246.558
	C377.291,486.708,381.835,482.165,381.835,476.561z M268.18,466.414h-79.014v-120.9h79.014V466.414z M288.474,466.414V335.367
	c0-5.603-4.544-10.147-10.147-10.147H179.02c-5.604,0-10.147,4.544-10.147,10.147v131.047h-33.617v-76.778
	c0-5.603-4.543-10.147-10.147-10.147c-5.604,0-10.147,4.544-10.147,10.147v76.778H95.806V300.33l132.836-102.999l132.899,104.252
	v164.831H288.474z"/>
<path d="M2.489,279.728c3.448,8.678,10.067,15.491,18.644,19.189c4.419,1.9,9.069,2.864,13.822,2.864
	c13.966,0,26.568-8.287,32.108-21.117l78.304-181.556l194.539,31.618c19.017,3.073,36.998-9.892,40.095-28.9
	c3.084-19.027-9.88-37.016-28.896-40.1L129.672,25.745c-15.839-2.576-31.347,5.914-37.705,20.649L2.88,252.98
	C-0.821,261.551-0.959,271.049,2.489,279.728z M21.513,261.021l89.087-206.588c2.347-5.439,7.667-8.849,13.441-8.849
	c0.784,0,1.578,0.064,2.372,0.192l221.438,35.982c7.973,1.293,13.408,8.84,12.115,16.814c-1.298,7.971-8.845,13.406-16.818,12.122
	L140.81,77.809c-4.596-0.751-9.104,1.723-10.945,5.997l-81.436,188.82c-2.325,5.384-7.613,8.862-13.474,8.862
	c-1.979,0-3.931-0.408-5.795-1.211c-3.591-1.547-6.365-4.404-7.811-8.042C19.903,268.597,19.961,264.615,21.513,261.021z"/>
<path d="M501.864,208.543c4.902,0,9.216-3.563,10.008-8.558c0.879-5.535-2.896-10.733-8.431-11.612L397.589,171.58
	c-5.531-0.881-10.734,2.896-11.611,8.431c-0.879,5.535,2.896,10.733,8.431,11.612l105.852,16.793
	C500.801,208.502,501.336,208.543,501.864,208.543z"/>
<path d="M387.673,234.089l60.12,9.537c0.538,0.085,1.074,0.126,1.602,0.126c4.902,0,9.216-3.563,10.009-8.559
	c0.878-5.534-2.897-10.732-8.433-11.611l-60.12-9.537c-5.52-0.872-10.733,2.897-11.611,8.433
	C378.363,228.012,382.138,233.21,387.673,234.089z"/>
<path d="M470.513,156.81c0.538,0.085,1.074,0.126,1.601,0.126c4.903,0,9.217-3.564,10.009-8.56
	c0.877-5.535-2.899-10.733-8.434-11.61l-60.12-9.528c-5.531-0.871-10.733,2.899-11.61,8.434c-0.877,5.535,2.899,10.733,8.434,11.61
	L470.513,156.81z"/>
<path d="M125.11,347.415c-13.058,0-13.079,20.294,0,20.294C138.168,367.708,138.189,347.415,125.11,347.415z"/>
<g>
</g>
<g>
</g>
<g>
</g>
<g>
</g>
<g>
</g>
<g>
</g>
<g>
</g>
<g>
</g>
<g>
</g>
<g>
</g>
<g>
</g>
<g>
</g>
<g>
</g>
<g>
</g>
<g>
</g>
</svg>
