<?xml version="1.0" encoding="iso-8859-1"?>
<!-- Generator: Adobe Illustrator 19.0.0, SVG Export Plug-In . SVG Version: 6.00 Build 0)  -->
<svg version="1.1" id="Capa_1" xmlns="http://www.w3.org/2000/svg" xmlns:xlink="http://www.w3.org/1999/xlink" x="0px" y="0px"
	 viewBox="0 0 512.003 512.003" style="enable-background:new 0 0 512.003 512.003;" xml:space="preserve">
<g>
	<path style="fill:#248A48;" d="M320.364,483.131l-0.6-0.789c-12.544-16.495-15.321-34.863-7.619-50.395
		c6.968-14.054,21.748-23.495,36.777-23.495c5.958,0,11.61,1.414,16.829,4.208c3.24-5.509,14.185-21.051,34.538-21.051
		c3.915,0,8.002,0.597,12.148,1.773c10.215,2.899,17.512,8.256,21.688,15.923c4.889,8.977,4.227,18.778,3.334,24.03
		c3.62-1.25,9.583-2.868,16.207-2.868c10.544,0,19.151,4.22,24.892,12.204c15.796,21.972-6.4,39.854-6.626,40.031l-0.544,0.429
		H320.364V483.131z"/>
	<path style="fill:#248A48;" d="M450.177,361.808c-7.432,0-13.966-1.521-19.42-4.52c-15.589-8.568-20.828-28.299-21.043-29.135
		l-0.47-1.821l1.789-0.58c0.298-0.097,7.417-2.373,16.486-2.373l0,0c7.426,0,13.955,1.519,19.405,4.512
		c15.59,8.568,20.83,28.31,21.045,29.146l0.469,1.821l-1.789,0.58C466.351,359.534,459.242,361.808,450.177,361.808z"/>
	<path style="fill:#248A48;" d="M334.56,377.247c-6.789,0-16.605-1.151-24.807-6.639c-15.373-10.283-19.024-31.198-19.172-32.085
		l-0.31-1.854l1.833-0.424c0.21-0.048,5.228-1.188,12.143-1.188c6.796,0,16.621,1.152,24.831,6.645
		c15.383,10.271,19.024,31.189,19.172,32.073l0.309,1.854l-1.831,0.423C346.516,376.102,341.489,377.247,334.56,377.247z"/>
</g>
<path style="fill:#917464;" d="M189.072,483.131l-0.353-1.558c-0.07-0.308-7.006-31.289-8.122-71.873
	c-1.031-37.532,2.843-91.229,27.155-133.899c9.748-17.121,22.189-31.443,36.977-42.569l0.99-0.745l20.376,10.205l-1.153,1.862
	c-0.11,0.177-11.041,18.1-16.941,51.258c-6.811,38.285-7.638,101.381,27.098,184.548l1.157,2.771H189.072z"/>
<path style="fill:#44C973;" d="M263.23,300.154c-6.551,0.001-12.562-0.943-17.861-2.805l-1.604-0.563l0.298-1.674
	c5.011-28.157,13.398-45.295,16.393-50.771l-14.305-7.164c-13.918,10.688-25.662,24.343-34.922,40.605l-0.575,1.011h-2.086
	l-0.609-0.703c-16.602-19.501-20.61-49.361-17.31-68.854c1.204-7.138,3.398-14.052,6.528-20.569
	c-13.983-15.715-19.981-36.509-16.469-57.274c5.635-33.231,34.147-57.35,67.795-57.35c3.855,0,7.752,0.329,11.585,0.979
	c5.634,0.956,11.133,2.612,16.368,4.93c13.209-15.853,34.257-23.741,64.277-24.109c0.551-0.007,1.102-0.01,1.646-0.01
	c36.768,0,62.55,14.855,78.772,45.401c4.431-0.884,8.948-1.331,13.45-1.331c3.834,0,7.708,0.326,11.515,0.97
	c37.427,6.345,62.714,41.955,56.371,79.38c-2.674,15.795-10.749,30.1-22.831,40.542c20.921,17.54,29.477,40.287,21.299,57.18
	c-6.336,13.087-21.284,20.594-41.01,20.595c-0.001,0-0.003,0-0.005,0c-13.212,0-27.269-3.425-40.651-9.904
	c-2.213-1.07-4.472-2.27-6.731-3.575c-10.486,8.973-33.506,10.897-51.312,10.897c-15.769,0-30.394-1.529-38.824-2.96
	c-5.532-0.932-10.96-2.552-16.144-4.817C296.41,294.083,280.219,300.154,263.23,300.154z"/>
<path d="M510.374,181.588c7.081-41.773-21.146-81.522-62.926-88.606c-7.349-1.24-14.742-1.416-22.066-0.526
	c-17.723-29.627-45.604-44.625-83.006-44.625c-0.577,0-1.16,0.003-1.742,0.011c-29.738,0.364-51.544,7.784-66.36,22.635
	c-4.178-1.482-8.476-2.602-12.85-3.344c-41.774-7.075-81.522,21.147-88.606,62.925c-3.628,21.45,1.832,42.924,15.035,59.907
	c-2.348,5.768-4.055,11.777-5.094,17.935c-3.414,20.162,0.071,48.611,14.848,69.828c-18.05,34.734-26.464,79.159-25.007,132.193
	c0.723,26.319,3.773,48.334,5.973,61.211h-60.922l9.957-9.961c3.905-3.905,3.903-10.237-0.002-14.143
	c-3.907-3.906-10.238-3.904-14.143,0.003l-9.948,9.952V442.91c0-5.522-4.477-10-10-10s-10,4.478-10,10v14.078l-9.959-9.959
	c-3.905-3.904-10.237-3.904-14.144,0c-3.905,3.905-3.905,10.237,0,14.144l9.959,9.959H10c-5.523,0-10,4.478-10,10
	c0,5.522,4.477,10,10,10h263.216c0.013,0,0.026,0.003,0.04,0.003c0.02,0,0.04-0.003,0.06-0.003h48.028
	c0.006,0,0.012,0.001,0.017,0.001c0.008,0,0.016-0.001,0.025-0.001h178.636c5.523,0,10-4.478,10-10c0-5.522-4.477-10-10-10h-10.162
	c3.627-9.671,3.602-21.43-4.809-33.131c-10.398-14.46-26.166-16.765-39.044-14.974c-0.322-5.419-1.608-11.58-4.858-17.548
	c-5.242-9.625-14.168-16.284-26.529-19.793c-24.976-7.085-42.644,5.329-51.83,17.054c-17.081-5.617-36.897-0.322-50.066,14.276
	c-10.669,11.828-17.764,31.857-8.65,54.115h-24.096c-28.592-71.264-30.446-126.78-25.684-163.54
	c2.976,0.388,5.996,0.582,9.036,0.582c15.578,0,31.556-4.779,43.509-11.108c4.627,1.74,9.401,3.029,14.246,3.846
	c10.77,1.827,30.226,3.677,49.633,2.884c19.189-0.787,33.16-3.844,42.361-9.3c0.913,0.475,1.823,0.931,2.726,1.367
	c17.785,8.611,36.835,12.216,53.644,10.133c18.402-2.273,32.15-10.988,38.71-24.537c8.862-18.307,2.061-41.764-16.865-60.832
	C501.229,209.783,507.889,196.262,510.374,181.588z M327.574,430.413c7.579-8.399,21.372-14.007,33.75-6.465
	c2.409,1.468,5.312,1.883,8.018,1.083c2.706-0.798,4.934-2.672,6.161-5.213c1.097-2.19,11.352-21.226,33.656-14.891
	c7.042,1.999,11.742,5.272,14.366,10.009c4.562,8.235,1.613,18.668,1.603,18.707c-1.152,3.765,0.036,7.845,2.998,10.438
	c2.962,2.593,7.193,3.196,10.773,1.559c0.831-0.38,20.432-9.15,29.915,4.035c3.816,5.309,4.411,10.265,1.87,15.597
	c-1.159,2.431-2.732,4.453-4.001,5.857H326.567C317.257,456.512,317.533,441.545,327.574,430.413z M258.501,471.131h-59.594
	c-4.954-27.718-18.29-123.466,19.273-189.391c7.853-13.793,17.583-25.58,28.971-35.114l2.636,1.32
	c-4.096,9.117-9.822,24.524-13.603,45.765C229.48,331.406,228.305,392.066,258.501,471.131z M490.153,272.743
	c-4.723,9.755-16.539,12.585-23.161,13.403c-13.029,1.611-28.114-1.332-42.478-8.286c-2.326-1.125-4.717-2.417-7.109-3.841
	c-3.934-2.342-8.958-1.712-12.194,1.528c-9.932,9.952-55.199,9.99-80.795,5.643c-4.853-0.817-9.609-2.277-14.137-4.339
	c-3.039-1.384-6.569-1.16-9.409,0.599c-11.079,6.858-28.555,12.026-43.108,10.423c5.717-25.365,13.9-38.973,13.975-39.096
	c1.484-2.388,1.894-5.29,1.13-7.995s-2.632-4.965-5.145-6.224l-17.311-8.67c-3.395-1.698-7.458-1.331-10.491,0.95
	c-11.589,8.72-21.803,19.281-30.502,31.5c-7.274-15.05-9.217-33.632-6.935-47.107c1.081-6.412,3.108-12.608,6.025-18.416
	c1.871-3.725,1.235-8.22-1.596-11.28c-12.097-13.076-17.335-30.622-14.372-48.139c5.24-30.903,34.65-51.779,65.541-46.545
	c5.077,0.861,10.022,2.412,14.699,4.61c4.212,1.979,9.229,0.792,12.109-2.86c10.75-13.641,29.064-20.432,55.992-20.762
	c0.51-0.006,1.014-0.009,1.517-0.009c43.073,0,59.88,22.913,68.79,40.244c2.08,4.047,6.627,6.181,11.07,5.188
	c7.204-1.606,14.559-1.794,21.854-0.562c30.902,5.239,51.782,34.643,46.544,65.544c-2.321,13.708-9.568,26.054-20.407,34.768
	c-2.368,1.904-3.742,4.781-3.734,7.82c0.008,3.038,1.397,5.908,3.775,7.8C487.81,242.571,495.978,260.71,490.153,272.743z"/>
<path d="M114.477,77.776L20.503,39.625C15.386,37.55,9.552,40.012,7.475,45.13C5.397,50.247,7.862,56.08,12.98,58.157l93.974,38.151
	c1.232,0.5,2.505,0.737,3.758,0.737c3.95,0,7.692-2.356,9.269-6.241C122.059,85.686,119.595,79.853,114.477,77.776z"/>
<path d="M152.544,63.444c3.949,0,7.691-2.355,9.269-6.24c2.078-5.117-0.386-10.951-5.502-13.029l-55.583-22.571
	C95.61,19.527,89.778,21.99,87.7,27.108c-2.078,5.117,0.386,10.951,5.502,13.029l55.583,22.571
	C150.017,63.207,151.291,63.444,152.544,63.444z"/>
<path d="M112.246,127.228l-53.372-21.661c-5.119-2.079-10.951,0.387-13.028,5.505c-2.077,5.117,0.388,10.951,5.505,13.027
	l53.372,21.661c1.232,0.5,2.505,0.737,3.757,0.737c3.95,0,7.692-2.356,9.27-6.242C119.829,135.138,117.364,129.305,112.246,127.228z
	"/>
<path d="M333.526,335.053c-18.216-12.186-42.208-6.836-43.221-6.603c-5.149,1.188-8.485,6.18-7.614,11.393
	c0.171,1.025,4.401,25.232,22.614,37.416c9.583,6.41,20.762,7.965,29.355,7.965c7.744,0,13.391-1.264,13.871-1.374
	c5.145-1.19,8.478-6.177,7.61-11.388C355.971,371.437,351.749,347.222,333.526,335.053z M316.425,360.634
	c-5.059-3.385-8.427-8.75-10.591-13.561c5.273,0.16,11.519,1.224,16.578,4.607c5.06,3.379,8.426,8.739,10.589,13.551
	C327.728,365.074,321.479,364.016,316.425,360.634z"/>
<path d="M450.775,320.879c-18.598-10.216-41.259-3.046-42.213-2.736c-5.026,1.632-7.916,6.891-6.597,12.009
	c0.25,0.973,6.352,23.934,24.936,34.148c7.675,4.221,16.044,5.479,23.293,5.479c10.314,0,18.364-2.548,18.925-2.729
	c5.026-1.631,7.916-6.89,6.597-12.008C475.465,354.067,469.364,331.095,450.775,320.879z M436.537,346.771
	c-4.829-2.654-8.352-7.157-10.783-11.369c4.864-0.206,10.559,0.351,15.391,3.005c4.83,2.654,8.353,7.16,10.786,11.378
	C447.07,349.995,441.371,349.43,436.537,346.771z"/>
<path d="M395.749,189.237c-5.523,0-10,4.478-10,10c0,8.022-6.527,14.551-14.551,14.551c-0.569,0-1.149-0.034-1.724-0.102
	c-4.223-0.493-8.296,1.732-10.157,5.554c-3.345,6.87-10.162,11.139-17.79,11.139c-5.523,0-10,4.478-10,10s4.477,10,10,10
	c12.883,0,24.988-6.386,32.381-16.696c17.791-1.386,31.842-16.306,31.842-34.446C405.749,193.716,401.272,189.237,395.749,189.237z"
	/>
<path d="M22.011,113.994c12.87,0,12.891-20.001,0-20.001C9.141,93.993,9.12,113.994,22.011,113.994z"/>
<g>
</g>
<g>
</g>
<g>
</g>
<g>
</g>
<g>
</g>
<g>
</g>
<g>
</g>
<g>
</g>
<g>
</g>
<g>
</g>
<g>
</g>
<g>
</g>
<g>
</g>
<g>
</g>
<g>
</g>
</svg>
